<svg width="500" height="500" viewBox="0 0 448 448" fill="none" xmlns="http://www.w3.org/2000/svg">
<g clip-path="url(#clip0_617_162)">
<path d="M110.794 188.693L116.137 198.014C120.854 206.256 128.584 212.337 137.735 214.952L170.643 224.329C180.418 227.114 187.125 236.038 187.125 246.211V268.889C187.125 275.141 190.649 280.824 196.219 283.609C201.789 286.394 205.312 292.078 205.312 298.33V320.496C205.312 329.362 213.781 335.785 222.306 333.341C231.457 330.726 238.562 323.395 240.892 314.13L242.483 307.765C244.87 298.159 251.122 289.918 259.704 285.03L264.308 282.416C272.834 277.585 278.062 268.491 278.062 258.715V253.998C278.062 246.78 275.164 239.846 270.049 234.73L267.832 232.514C262.717 227.399 255.783 224.5 248.565 224.5H224.068C217.76 224.5 211.508 222.852 205.995 219.726L186.386 208.529C183.942 207.108 182.067 204.835 181.157 202.163C179.338 196.707 181.782 190.796 186.954 188.239L190.308 186.534C194.059 184.658 198.435 184.317 202.414 185.681L215.6 190.057C220.26 191.592 225.376 189.83 228.047 185.795C230.718 181.816 230.434 176.53 227.365 172.836L219.635 163.572C213.952 156.752 214.008 146.805 219.806 140.099L228.729 129.698C233.73 123.844 234.526 115.489 230.718 108.839L229.354 106.452C227.365 106.338 225.432 106.281 223.443 106.281C170.699 106.281 125.97 140.894 110.794 188.693ZM341.719 224.5C341.719 203.584 336.263 183.919 326.714 166.812L312.164 172.666C303.241 176.246 298.637 186.193 301.649 195.286L311.255 224.102C313.244 230.013 318.075 234.503 324.1 235.981L340.639 240.13C341.321 235.015 341.662 229.786 341.662 224.5H341.719ZM78 224.5C78 185.911 93.3294 148.903 120.616 121.616C147.903 94.3294 184.911 79 223.5 79C262.089 79 299.098 94.3294 326.384 121.616C353.671 148.903 369 185.911 369 224.5C369 263.089 353.671 300.098 326.384 327.384C299.098 354.671 262.089 370 223.5 370C184.911 370 147.903 354.671 120.616 327.384C93.3294 300.098 78 263.089 78 224.5Z" fill="url(#paint0_linear_617_162)"/>
</g>
<circle opacity="0.3" cx="223.529" cy="224" r="183.971" stroke="white"/>
<circle opacity="0.15" cx="223.529" cy="224" r="199.5" stroke="white"/>
<path opacity="0.15" d="M223.765 0.5C347.07 0.5 447.029 100.564 447.029 224C447.029 347.436 347.07 447.5 223.765 447.5C100.459 447.5 0.5 347.436 0.5 224C0.5 100.564 100.459 0.500033 223.765 0.5Z" stroke="white"/>
<defs>
<linearGradient id="paint0_linear_617_162" x1="78" y1="79" x2="380.095" y2="91.0141" gradientUnits="userSpaceOnUse">
<stop stop-color="#4D55AC"/>
<stop offset="0.505" stop-color="#1D1D1D"/>
<stop offset="1" stop-color="#55C9E1"/>
</linearGradient>
<clipPath id="clip0_617_162">
<rect width="291" height="291" fill="white" transform="translate(78 79)"/>
</clipPath>
</defs>
</svg>
